<mxfile host="app.diagrams.net" modified="2023-02-14T19:21:51.612Z" agent="5.0 (Windows NT 10.0; Win64; x64) AppleWebKit/537.36 (KHTML, like Gecko) Chrome/110.0.0.0 Safari/537.36" etag="40DHI670A_dZMfs4JATH" version="20.8.20" type="github">
  <diagram name="Page-1" id="_yqPajn8_n42sKrYr0zD">
    <mxGraphModel dx="1518" dy="684" grid="1" gridSize="10" guides="1" tooltips="1" connect="1" arrows="1" fold="1" page="1" pageScale="1" pageWidth="827" pageHeight="1169" math="0" shadow="0">
      <root>
        <mxCell id="0" />
        <mxCell id="1" parent="0" />
        <mxCell id="OnfA_kIMCFxbD8Ni3_1J-2" value="NGINX Load Balancer" style="ellipse;whiteSpace=wrap;html=1;" vertex="1" parent="1">
          <mxGeometry x="250" y="300" width="120" height="120" as="geometry" />
        </mxCell>
        <mxCell id="OnfA_kIMCFxbD8Ni3_1J-3" value="Server 1&lt;br&gt;Java app" style="whiteSpace=wrap;html=1;aspect=fixed;" vertex="1" parent="1">
          <mxGeometry x="420" y="200" width="100" height="100" as="geometry" />
        </mxCell>
        <mxCell id="OnfA_kIMCFxbD8Ni3_1J-4" value="Server 2&lt;br&gt;Java app" style="whiteSpace=wrap;html=1;aspect=fixed;" vertex="1" parent="1">
          <mxGeometry x="420" y="420" width="100" height="100" as="geometry" />
        </mxCell>
        <mxCell id="OnfA_kIMCFxbD8Ni3_1J-6" value="Server 3&lt;br&gt;Database &lt;br&gt;MySQL" style="whiteSpace=wrap;html=1;aspect=fixed;" vertex="1" parent="1">
          <mxGeometry x="630" y="310" width="100" height="100" as="geometry" />
        </mxCell>
        <mxCell id="OnfA_kIMCFxbD8Ni3_1J-7" value="" style="shape=image;html=1;verticalAlign=top;verticalLabelPosition=bottom;labelBackgroundColor=#ffffff;imageAspect=0;aspect=fixed;image=https://cdn0.iconfinder.com/data/icons/luisance_pack/128/ordinateur_portable_eteint.png" vertex="1" parent="1">
          <mxGeometry x="20" y="130" width="128" height="128" as="geometry" />
        </mxCell>
        <mxCell id="OnfA_kIMCFxbD8Ni3_1J-8" value="" style="shape=image;html=1;verticalAlign=top;verticalLabelPosition=bottom;labelBackgroundColor=#ffffff;imageAspect=0;aspect=fixed;image=https://cdn0.iconfinder.com/data/icons/luisance_pack/128/ordinateur_portable_eteint.png" vertex="1" parent="1">
          <mxGeometry x="20" y="296" width="128" height="128" as="geometry" />
        </mxCell>
        <mxCell id="OnfA_kIMCFxbD8Ni3_1J-9" value="" style="shape=image;html=1;verticalAlign=top;verticalLabelPosition=bottom;labelBackgroundColor=#ffffff;imageAspect=0;aspect=fixed;image=https://cdn0.iconfinder.com/data/icons/luisance_pack/128/ordinateur_portable_eteint.png" vertex="1" parent="1">
          <mxGeometry x="20" y="470" width="128" height="128" as="geometry" />
        </mxCell>
        <mxCell id="OnfA_kIMCFxbD8Ni3_1J-11" value="" style="endArrow=classic;html=1;rounded=0;" edge="1" parent="1">
          <mxGeometry width="50" height="50" relative="1" as="geometry">
            <mxPoint x="364" y="320" as="sourcePoint" />
            <mxPoint x="414" y="270" as="targetPoint" />
          </mxGeometry>
        </mxCell>
        <mxCell id="OnfA_kIMCFxbD8Ni3_1J-12" value="" style="endArrow=classic;html=1;rounded=0;" edge="1" parent="1">
          <mxGeometry width="50" height="50" relative="1" as="geometry">
            <mxPoint x="364" y="400" as="sourcePoint" />
            <mxPoint x="414" y="460" as="targetPoint" />
          </mxGeometry>
        </mxCell>
        <mxCell id="OnfA_kIMCFxbD8Ni3_1J-13" value="" style="endArrow=classic;html=1;rounded=0;" edge="1" parent="1">
          <mxGeometry width="50" height="50" relative="1" as="geometry">
            <mxPoint x="148" y="219" as="sourcePoint" />
            <mxPoint x="240" y="330" as="targetPoint" />
          </mxGeometry>
        </mxCell>
        <mxCell id="OnfA_kIMCFxbD8Ni3_1J-14" value="" style="endArrow=classic;html=1;rounded=0;" edge="1" parent="1">
          <mxGeometry width="50" height="50" relative="1" as="geometry">
            <mxPoint x="140" y="380" as="sourcePoint" />
            <mxPoint x="240" y="380" as="targetPoint" />
          </mxGeometry>
        </mxCell>
        <mxCell id="OnfA_kIMCFxbD8Ni3_1J-15" value="" style="endArrow=classic;html=1;rounded=0;" edge="1" parent="1">
          <mxGeometry width="50" height="50" relative="1" as="geometry">
            <mxPoint x="148" y="550" as="sourcePoint" />
            <mxPoint x="240" y="430" as="targetPoint" />
          </mxGeometry>
        </mxCell>
        <mxCell id="OnfA_kIMCFxbD8Ni3_1J-16" value="" style="endArrow=classic;html=1;rounded=0;entryX=0;entryY=0.5;entryDx=0;entryDy=0;" edge="1" parent="1" target="OnfA_kIMCFxbD8Ni3_1J-6">
          <mxGeometry width="50" height="50" relative="1" as="geometry">
            <mxPoint x="520" y="275" as="sourcePoint" />
            <mxPoint x="570" y="225" as="targetPoint" />
          </mxGeometry>
        </mxCell>
        <mxCell id="OnfA_kIMCFxbD8Ni3_1J-17" value="" style="endArrow=classic;html=1;rounded=0;entryX=0;entryY=0.5;entryDx=0;entryDy=0;" edge="1" parent="1" target="OnfA_kIMCFxbD8Ni3_1J-6">
          <mxGeometry width="50" height="50" relative="1" as="geometry">
            <mxPoint x="520" y="470" as="sourcePoint" />
            <mxPoint x="630" y="555" as="targetPoint" />
          </mxGeometry>
        </mxCell>
        <mxCell id="OnfA_kIMCFxbD8Ni3_1J-19" value="SSL" style="text;html=1;align=center;verticalAlign=middle;resizable=0;points=[];autosize=1;strokeColor=none;fillColor=none;rotation=45;" vertex="1" parent="1">
          <mxGeometry x="170" y="235" width="50" height="30" as="geometry" />
        </mxCell>
        <mxCell id="OnfA_kIMCFxbD8Ni3_1J-21" value="SSL" style="text;html=1;align=center;verticalAlign=middle;resizable=0;points=[];autosize=1;strokeColor=none;fillColor=none;rotation=0;" vertex="1" parent="1">
          <mxGeometry x="160" y="345" width="50" height="30" as="geometry" />
        </mxCell>
        <mxCell id="OnfA_kIMCFxbD8Ni3_1J-22" value="SSL" style="text;html=1;align=center;verticalAlign=middle;resizable=0;points=[];autosize=1;strokeColor=none;fillColor=none;rotation=-45;" vertex="1" parent="1">
          <mxGeometry x="160" y="455" width="50" height="30" as="geometry" />
        </mxCell>
      </root>
    </mxGraphModel>
  </diagram>
</mxfile>
